# xmcd
#
# Track frame offsets: 
#        150
#        11588
#        28872
#        45898
#        63136
#        79276
#        95593
#        112478
#        128352
#
# Disc length: 1947 seconds
#
# Revision: 0
# Processed by: cddbd v1.5.1PL2 Copyright (c) Steve Scherf et al.
# Submitted via: ExactAudioCopy v0.95b4
#
DISCID=6c079909
DTITLE=The Judds - Heartland
DYEAR=1987
DGENRE=
TTITLE0=Don't Be Cruel
TTITLE1=I'm Falling in Love Tonight
TTITLE2=Turn it Loose
TTITLE3=Old Pictures
TTITLE4=Cow Cow Boogie
TTITLE5=Maybe Your Baby's Got the Blues
TTITLE6=I Know Where I'm Going
TTITLE7=Why Don't You Believe Me
TTITLE8=The Sweetest Gift
EXTD=
EXTT0=
EXTT1=
EXTT2=
EXTT3=
EXTT4=
EXTT5=
EXTT6=
EXTT7=
EXTT8=
PLAYORDER=
